<svg class="w-5 h-5 fill-current text-gray-400" viewBox="0 0 496 512">
    <path
        d="M165.9 397.4c0 2-2.3 3.6-5.2 3.6-3.1 0-5.4-1.6-5.4-3.6 0-2 2.3-3.6 5.4-3.6 2.9 0 5.2 1.6 5.2 3.6zm-31.6-3.6c-2.9 0-5.2 1.6-5.2 3.6 0 2 2.3 3.6 5.2 3.6 3 0 5.3-1.6 5.3-3.6.1-2-2.2-3.6-5.3-3.6zm44.2-3.6c-2.9 0-5.2 1.6-5.2 3.6 0 2 2.3 3.6 5.2 3.6 3 0 5.3-1.6 5.3-3.6 0-2-2.3-3.6-5.3-3.6zM248 8C111 8 0 119.3 0 256c0 109.1 70.7 201.4 168.8 234.1 12.3 2.3 16.8-5.3 16.8-11.8 0-5.8-.2-21.3-.3-41.8-68.7 14.9-83.2-33.1-83.2-33.1-11.2-28.4-27.4-36-27.4-36-22.4-15.3 1.7-15 1.7-15 24.7 1.7 37.8 25.4 37.8 25.4 22 37.7 57.9 26.8 72 20.5 2.2-16 8.7-26.8 15.8-33-54.9-6.2-112.6-27.4-112.6-122.2 0-27 9.6-49.1 25.4-66.4-2.6-6.2-11-31.3 2.4-65.2 0 0 20.4-6.5 66.8 25.1 19.4-5.4 40.2-8.1 60.8-8.2 20.5 0 41.1 2.8 60.8 8.2 46.4-31.6 66.8-25.1 66.8-25.1 13.4 33.9 5 58.9 2.4 65.2 15.8 17.3 25.4 39.4 25.4 66.4 0 95.1-57.8 116-112.9 122.1 8.9 7.7 17 22.9 17 46.2 0 33.4-.3 60.4-.3 68.6 0 6.6 4.4 14.3 16.9 11.8C425.3 457.4 496 365.1 496 256 496 119.3 385 8 248 8z">
    </path>
</svg>
